<?xml version="1.0" standalone="no"?>
<!DOCTYPE svg PUBLIC "-//W3C//DTD SVG 20010904//EN"
 "http://www.w3.org/TR/2001/REC-SVG-20010904/DTD/svg10.dtd">
<svg version="1.0" xmlns="http://www.w3.org/2000/svg"
 width="200.000000pt" height="200.000000pt" viewBox="0 0 200.000000 200.000000"
 preserveAspectRatio="xMidYMid meet">
<metadata>
Created by potrace 1.14, written by Peter Selinger 2001-2017
</metadata>
<g transform="translate(0.000000,200.000000) scale(0.100000,-0.100000)"
fill="#000000" stroke="none">
<path d="M514 1891 c-84 -14 -124 -65 -124 -158 0 -64 26 -114 71 -136 23 -11
72 -20 133 -24 82 -5 96 -8 91 -22 -3 -9 -90 -252 -194 -541 l-189 -525 -53
-8 c-64 -9 -93 -26 -116 -70 -21 -40 -21 -133 1 -175 33 -64 50 -67 356 -67
244 0 279 2 307 18 45 24 63 64 63 137 0 110 -41 149 -163 158 -77 5 -74 -5
-32 107 l23 60 319 3 319 2 23 -72 c13 -40 26 -79 28 -86 4 -8 -10 -12 -48
-13 -130 -2 -179 -45 -179 -156 0 -76 18 -116 63 -140 29 -16 64 -18 337 -18
331 0 342 2 382 56 12 16 21 49 24 85 9 100 -37 159 -133 170 l-51 7 -216 591
c-118 325 -227 622 -240 660 -33 91 -81 141 -148 156 -53 11 -586 12 -654 1z
m596 -620 c55 -162 100 -298 100 -302 0 -11 -410 -12 -410 -1 0 11 203 602
206 599 2 -2 48 -135 104 -296z"/>
</g>
</svg>
